<svg
  xmlns="http://www.w3.org/2000/svg"
  viewBox="0 0 24 24"
  width="24"
  height="24"
  fill="currentColor"
>
  <path
    d="M12 0C5.37 0 0 5.37 0 12c0 5.3 3.438 9.799 8.205 11.387.6.111.82-.26.82-.577v-2.223c-3.338.726-4.033-1.415-4.033-1.415-.546-1.387-1.333-1.757-1.333-1.757-1.091-.745.082-.73.082-.73 1.205.084 1.838 1.237 1.838 1.237 1.071 1.835 2.81 1.305 3.495.998.109-.776.418-1.305.762-1.605-2.665-.303-5.467-1.332-5.467-5.93 0-1.31.469-2.382 1.237-3.222-.124-.303-.536-1.522.117-3.176 0 0 1.008-.322 3.301 1.23.957-.266 1.984-.399 3.003-.404 1.02.005 2.047.138 3.006.404 2.291-1.552 3.297-1.23 3.297-1.23.656 1.654.244 2.873.12 3.176.77.84 1.235 1.912 1.235 3.222 0 4.61-2.807 5.623-5.479 5.92.43.372.814 1.1.814 2.219v3.293c0 .32.22.694.824.576C20.565 21.795 24 17.3 24 12c0-6.63-5.37-12-12-12z"
  />
</svg>
